<svg xmlns="http://www.w3.org/2000/svg" width="24" height="24" viewBox="0 0 24 24"><path d="M3.5 6.6 A1.9 1.9 0 0 1 5.4 4.7 L6 4.8 H9.8 L11.4 6.7 H18.6 A1.9 1.9 0 0 1 20.5 8.6 V16.4 A1.9 1.9 0 0 1 18.6 18.3 H5.4 A1.9 1.9 0 0 1 3.5 16.4 Z" fill="#161B2E" stroke="#232A45" stroke-width="1.3"/><path d="M15.8 12.4 L16.68 13.115 L16.900000000000002 12.51 L16.405 13.555 L17.175 13.665 L16.46 14.105 L16.735 14.93 L16.13 14.435 L15.25 14.71 L15.690000000000001 13.995 L14.81 13.72 L15.58 13.335 L15.030000000000001 12.51 L15.855 13.005 Z" fill="#FFD54F"/><polygon points="11.5,11.1 12.26,12.43 13.4,12.43 12.545,13.285 12.83,14.615 11.5,13.76 10.17,14.615 10.455,13.285 9.6,12.43 10.74,12.43" fill="#FFD54F"/></svg>