<svg xmlns="http://www.w3.org/2000/svg" width="24" height="24" viewBox="0 0 24 24"><rect x="3" y="1.5" width="18" height="21" fill="#10151F" stroke="#2A3446" stroke-width="1.2"/><rect x="7" y="3.5" width="10" height="2" fill="#F47067"/><rect x="18.5" y="2.6" width="2" height="2" fill="#F47067"/><rect x="8" y="10" width="8" height="9" fill="#F47067"/><rect x="8" y="7.5" width="8" height="2.5" clip-path="" fill="#F47067"/><polygon points="10,7.5 12,8.7 14,7.5 12,7.5" fill="#F47067"/><polygon points="8,10 10,10 8,9 10,5.4 12,6.6 14,5.4 16,9 14,10 16,10" fill="#F47067"/><path d="M9.6 12.2 L10.9 12.2 L12 10.9 L13.1 12.2 L14.4 12.2" fill="none" stroke="#10151F" stroke-width="0"/><rect x="9" y="12.4" width="6" height="1.4" fill="#FFE9EC"/><rect x="12" y="11" width="1.4" height="1.4" fill="#FFE9EC"/><rect x="10.6" y="13.2" width="1.4" height="1.4" fill="#FFE9EC"/></svg>